<svg width="100%" height="100%" viewBox="0 0 164 164" version="1.1" xmlns="http://www.w3.org/2000/svg" xmlns:xlink="http://www.w3.org/1999/xlink" xml:space="preserve" xmlns:serif="http://www.serif.com/" style="fill-rule:evenodd;clip-rule:evenodd;stroke-linejoin:round;stroke-miterlimit:2;"><rect id="Artboard1" x="0" y="0" width="163.771" height="163.771" style="fill:none;"/><path d="M160.27,42.153c-0,-21.636 -17.566,-39.202 -39.202,-39.202l-78.402,0c-21.636,0 -39.201,17.566 -39.201,39.202l-0,78.402c-0,21.636 17.565,39.201 39.201,39.201l78.402,0c21.636,0 39.202,-17.565 39.202,-39.201l-0,-78.402Z" style="fill:#ebebeb;"/><path d="M148.433,88.381c-0,1.455 -0.466,2.241 -1.397,2.357c-7.042,0.815 -11.829,2.125 -14.361,3.929c-2.531,1.804 -3.797,5.412 -3.797,10.825l-0,10.301c-0,8.963 0.64,15.132 1.921,18.508c-7.741,3.084 -16.093,5.601 -25.055,7.551c-8.963,1.95 -16.878,2.925 -23.746,2.925c-13.269,-0 -24.909,-2.619 -34.919,-7.857c-10.011,-5.238 -17.809,-12.731 -23.397,-22.48c-5.587,-9.748 -8.38,-20.588 -8.38,-32.519c-0,-11.873 3.026,-22.77 9.079,-32.693c6.053,-9.923 14.404,-17.62 25.055,-23.091c10.65,-5.471 22.727,-8.206 36.229,-8.206c5.238,-0 12.28,0.931 21.126,2.793c7.799,1.63 13.764,2.445 17.897,2.445c0.756,8.148 2.095,18.042 4.015,29.681c0,0.932 -0.931,1.397 -2.793,1.397c-1.222,0 -1.95,-0.465 -2.183,-1.397c-5.121,-19.555 -18.74,-29.332 -40.856,-29.332c-13.677,-0 -25.156,5.645 -34.439,16.936c-9.283,11.291 -13.925,25.113 -13.925,41.467c0,15.889 4.598,29.405 13.794,40.551c9.195,11.145 20.428,16.717 33.697,16.717c19.497,0 29.245,-4.83 29.245,-14.491l0,-23.047c0,-3.201 -1.542,-5.486 -4.626,-6.853c-3.085,-1.368 -10.476,-2.634 -22.174,-3.798c-0.932,0 -1.397,-0.873 -1.397,-2.619c-0,-1.629 0.465,-2.444 1.397,-2.444c3.899,-0 9.661,0.145 17.285,0.436c7.333,0.291 12.775,0.437 16.325,0.437c3.492,-0 8.119,-0.146 13.88,-0.437c6.17,-0.291 11.204,-0.436 15.103,-0.436c0.931,-0 1.397,0.815 1.397,2.444Z" style="fill-rule:nonzero;"/></svg>